<svg width="26" height="26" viewBox="0 0 26 26" fill="none" xmlns="http://www.w3.org/2000/svg">
<path d="M26 13C26 20.1797 20.1797 26 13 26C5.8203 26 0 20.1797 0 13C0 5.8203 5.8203 0 13 0C20.1797 0 26 5.8203 26 13Z" fill="#00CA8D"/>
<path d="M8.26879 12.6358C7.91097 12.3583 7.41088 12.4441 7.15207 12.8273C6.89297 13.2102 6.97302 13.7458 7.33084 14.0229C8.57722 14.9895 9.59684 16.4969 10.4333 18.485C10.7144 19.1534 11.599 19.1591 11.8874 18.4939C13.5175 14.7367 15.8814 11.105 18.715 8.50702C19.0506 8.19937 19.0899 7.65873 18.8026 7.29943C18.5154 6.94011 18.0105 6.89829 17.675 7.20593C15.0451 9.61722 12.8192 12.8233 11.1528 16.2218C10.3507 14.7212 9.40201 13.5145 8.26879 12.6358Z" fill="white"/>
</svg>
