<svg xmlns="http://www.w3.org/2000/svg" width="7.679" height="13.411" viewBox="0 0 7.679 13.411">
  <path id="smallblueleftarrow" d="M13.331,7.067a.987.987,0,0,1-1.26.5c-.116-.048-.965-.866-2.754-2.653L6.731,2.325,4.1,4.951C1.229,7.815,1.361,7.7.853,7.668A.9.9,0,0,1,0,6.74a1.2,1.2,0,0,1,.075-.411c.048-.1,1.156-1.249,3.038-3.136A41.955,41.955,0,0,1,6.3.109.933.933,0,0,1,7.083.067c.233.1,6.127,5.977,6.247,6.232A.955.955,0,0,1,13.331,7.067Z" transform="translate(7.679) rotate(90)" fill="black" fill-rule="evenodd"/>
</svg>
