<svg width="48" height="48" viewBox="0 0 48 48" fill="none" xmlns="http://www.w3.org/2000/svg">
<g filter="url(#filter0_d_1_408)">
<path d="M23.9995 39.999C18.6953 39.999 13.6083 37.8919 9.85771 34.1413C6.10708 30.3907 4 25.3037 4 19.9995C4 14.6954 6.10708 9.60841 9.85771 5.85779C13.6083 2.10716 18.6953 8.03654e-05 23.9995 8.03654e-05C28.1571 -0.0118079 32.2113 1.29554 35.5788 3.734C38.956 6.19636 41.5184 9.61374 42.9356 13.5457C43.6548 15.6206 44.0146 17.803 43.9995 19.9989C44.002 22.6261 43.4863 25.2279 42.4821 27.6555C41.4779 30.0831 40.0048 32.2889 38.1471 34.1465C36.2894 36.0042 34.0837 37.4773 31.656 38.4815C29.2284 39.4858 26.6266 40.0014 23.9995 39.999Z" fill="white"/>
<path d="M34.839 25.0615C36.0827 21.3987 32.6107 15.0005 27.7258 13.01C21.7735 10.5866 17.3352 12.5198 16.0378 16.2069C14.7403 19.894 18.5581 26.7914 23.5336 28.5417C28.5091 30.2921 33.4615 29.1175 34.839 25.0615ZM24.4441 25.2396C20.4411 23.8323 17.3199 18.4294 18.3258 15.5712C19.3316 12.7129 22.8696 11.2491 27.6583 13.1878C31.5891 14.7815 34.4297 19.7947 33.4686 22.6337C32.3991 25.7781 28.4467 26.6474 24.4441 25.2396Z" fill="#03918A"/>
<path d="M28.3581 13.1796C27.8843 12.8128 27.378 12.49 26.8456 12.2153C21.1244 9.28723 16.5358 10.8303 14.9268 14.3911C14.4747 15.5521 14.3726 16.8201 14.6332 18.0385C14.6587 18.1888 14.6866 18.3395 14.7227 18.4926C15.4198 21.5643 17.1359 24.3097 19.5918 26.282C20.1287 26.6947 20.7105 27.0454 21.3261 27.3275C22.5657 27.8976 23.885 28.2751 25.2385 28.4472C26.5734 28.0371 27.8104 27.3584 28.8734 26.4527C31.1359 24.4512 32.5565 21.9893 32.8191 19.6554C32.004 17.1037 30.4518 14.8504 28.3581 13.1796ZM25.1517 24.9532C24.2437 24.7821 23.3598 24.5013 22.5196 24.1168C19.3952 22.7013 17.0645 18.7375 16.9514 15.8121C16.9491 15.7278 16.9463 15.6438 16.9463 15.5621C16.9365 15.0104 17.0435 14.4629 17.2603 13.9554C18.5099 11.193 22.1601 10.0431 26.7639 12.3856C27.1343 12.5764 27.4898 12.7947 27.8275 13.0387C30.9749 15.3114 32.8214 19.8207 31.7351 22.3006C30.7026 24.647 28.0751 25.494 25.1517 24.9532Z" fill="#E26549"/>
<path d="M31.3365 14.8816C30.5182 14.0517 29.4877 13.4624 28.3574 13.178C28.1839 13.127 28.0077 13.0811 27.8268 13.0375C24.5518 12.2824 20.1928 12.9484 17.3463 15.2286C17.2086 15.3384 17.0759 15.4479 16.946 15.5602L16.9437 15.5629C16.9437 15.6241 16.9437 15.7109 16.946 15.8153L16.9511 15.8102C17.1144 15.665 17.2906 15.5166 17.4688 15.3742C20.774 12.7165 26.5344 12.6756 28.5485 14.8973C30.7753 17.3611 29.6081 21.2382 26.4316 24.0489C26.0383 24.3948 25.609 24.6975 25.151 24.9516C23.4442 25.8693 21.5281 26.3273 19.5908 26.2804C17.6528 26.2447 15.9052 25.7039 15.0073 24.6863C13.6223 23.1204 13.4029 20.8245 14.7216 18.491C14.7216 18.4887 14.7243 18.4887 14.7243 18.4859C14.6965 18.3458 14.6659 18.1927 14.64 18.0267C14.6376 18.0295 14.6349 18.0346 14.6325 18.0369C12.2735 21.3245 12.4442 24.7271 14.4489 26.9947C16.377 29.1755 21.2461 29.7442 25.2378 28.4468C26.5727 28.0367 27.8097 27.358 28.8727 26.4523C31.1352 24.4508 32.5558 21.989 32.8184 19.655C32.9332 18.7995 32.8601 17.9292 32.6041 17.1048C32.3482 16.2804 31.9156 15.5218 31.3365 14.8816Z" fill="#9A1C6C"/>
</g>
<defs>
<filter id="filter0_d_1_408" x="0" y="0" width="48" height="47.999" filterUnits="userSpaceOnUse" color-interpolation-filters="sRGB">
<feFlood flood-opacity="0" result="BackgroundImageFix"/>
<feColorMatrix in="SourceAlpha" type="matrix" values="0 0 0 0 0 0 0 0 0 0 0 0 0 0 0 0 0 0 127 0" result="hardAlpha"/>
<feOffset dy="4"/>
<feGaussianBlur stdDeviation="2"/>
<feComposite in2="hardAlpha" operator="out"/>
<feColorMatrix type="matrix" values="0 0 0 0 0 0 0 0 0 0 0 0 0 0 0 0 0 0 0.25 0"/>
<feBlend mode="normal" in2="BackgroundImageFix" result="effect1_dropShadow_1_408"/>
<feBlend mode="normal" in="SourceGraphic" in2="effect1_dropShadow_1_408" result="shape"/>
</filter>
</defs>
</svg>
